<?xml version="1.0" standalone="no"?>
<!DOCTYPE svg PUBLIC "-//W3C//DTD SVG 20010904//EN"
 "http://www.w3.org/TR/2001/REC-SVG-20010904/DTD/svg10.dtd">
<svg version="1.0" xmlns="http://www.w3.org/2000/svg"
 width="512.000000pt" height="512.000000pt" viewBox="0 0 512.000000 512.000000"
 preserveAspectRatio="xMidYMid meet">

<g transform="translate(0.000000,512.000000) scale(0.100000,-0.100000)"
fill="#000000" stroke="none">
<path d="M415 3987 c-37 -18 -70 -53 -84 -90 -17 -43 -15 -1436 1 -1491 12
-39 79 -118 121 -141 16 -9 13 -40 -54 -507 l-71 -498 23 -47 c54 -109 202
-125 273 -29 16 21 64 172 150 476 70 245 136 475 147 513 l20 68 146 -3 147
-3 146 -510 c80 -280 154 -522 164 -537 22 -33 91 -68 134 -68 74 0 145 57
158 127 4 24 -16 191 -60 497 -36 254 -66 468 -66 477 0 13 13 18 55 21 59 5
94 24 129 72 17 22 21 42 20 99 -1 121 -67 221 -184 279 -44 23 -51 23 -487
26 l-442 3 -3 522 -3 522 -34 63 c-38 69 -81 110 -149 142 -57 27 -157 35
-197 17z m154 -175 c14 -10 34 -31 45 -46 20 -27 21 -41 26 -596 5 -529 6
-571 23 -587 16 -17 55 -18 507 -23 474 -5 489 -6 516 -26 39 -28 63 -63 70
-101 l7 -33 -617 0 -617 0 -24 25 -25 24 0 697 0 697 33 -7 c17 -3 43 -14 56
-24z m201 -1579 c-1 -15 -269 -918 -269 -907 -1 11 114 822 124 882 l6 32 69
0 c39 0 70 -3 70 -7z m775 -15 c7 -33 124 -903 121 -905 -1 -1 -60 201 -131
450 -70 249 -130 458 -133 465 -3 9 14 12 67 12 65 0 71 -2 76 -22z"/>
<path d="M4565 3991 c-92 -24 -173 -90 -215 -176 l-25 -50 -3 -522 -3 -522
-442 -3 -442 -3 -50 -25 c-64 -31 -124 -92 -155 -155 -33 -68 -35 -180 -4
-221 35 -48 70 -67 129 -72 42 -3 55 -8 55 -21 0 -9 -30 -223 -66 -477 -47
-325 -65 -472 -60 -499 5 -25 21 -52 45 -76 64 -65 154 -65 223 -1 l39 37 148
515 147 515 147 3 146 3 20 -68 c11 -38 77 -268 147 -513 86 -304 134 -455
150 -476 74 -100 234 -77 279 39 16 43 15 52 -55 538 -66 465 -69 495 -53 504
45 25 110 103 122 146 9 33 11 220 9 766 -3 711 -3 722 -24 749 -36 48 -70 67
-126 70 -29 2 -66 -1 -83 -5z m75 -846 l0 -696 -25 -24 -24 -25 -617 0 -616 0
6 33 c7 38 31 73 70 101 27 20 42 21 518 26 l490 5 19 24 c18 22 19 47 19 571
0 365 4 558 11 577 20 53 82 102 132 103 16 0 17 -40 17 -695z m-923 -917 c-2
-7 -62 -212 -133 -455 -71 -243 -130 -440 -132 -438 -3 3 114 839 123 883 5
20 11 22 76 22 53 0 70 -3 66 -12z m778 -20 c11 -66 115 -855 114 -869 0 -13
-259 878 -259 894 0 4 31 7 70 7 l69 0 6 -32z"/>
<path d="M1145 3335 c-25 -24 -25 -26 -25 -215 0 -189 0 -191 25 -215 l24 -25
576 0 575 0 0 -800 0 -800 -135 0 c-131 0 -137 -1 -160 -25 -16 -15 -25 -36
-25 -55 0 -19 9 -40 25 -55 l24 -25 511 0 511 0 24 25 c33 32 33 78 0 110 -23
24 -29 25 -160 25 l-135 0 0 800 0 800 575 0 576 0 24 25 c25 24 25 26 25 215
0 189 0 191 -25 215 l-24 25 -1391 0 -1391 0 -24 -25z m2695 -215 l0 -80
-1280 0 -1280 0 0 80 0 80 1280 0 1280 0 0 -80z m-1200 -1040 l0 -800 -80 0
-80 0 0 800 0 800 80 0 80 0 0 -800z"/>
</g>
</svg>
